<svg width="1280" height="637" viewBox="0 0 1280 637" fill="none" xmlns="http://www.w3.org/2000/svg">
<path d="M1280 0H0V637H1280V0Z" fill="#00296B"/>
<path d="M-3.05176e-05 451.965C65.3795 470.566 131.079 419.493 186.523 371.41C241.06 324.111 291.468 262.335 311.341 181.952C330.344 105.089 309.74 23.5543 291.61 -53.6536C275.66 -121.576 250.632 -184.111 213.12 -236.319C176.42 -287.396 127.73 -315.566 79.9146 -348.284C19.4853 -389.634 -36.4027 -467.589 -104.015 -453.32C-171.413 -439.096 -214.739 -352.433 -251.094 -278.428C-283.891 -211.668 -299.445 -133.986 -299.631 -55.13C-299.801 16.793 -281.46 86.0007 -252.1 147.33C-225.084 203.763 -177.489 233.11 -139.887 278.548C-91.7094 336.766 -64.6836 433.563 -3.05176e-05 451.965Z" fill="#002156"/>
<path d="M1280 1170.75C1358.69 1185.02 1435.44 1134.62 1502.66 1080.37C1570.3 1025.79 1626.29 951.689 1663.6 861.182C1702.42 767.008 1734.55 660.807 1718.71 556.281C1703.12 453.381 1631.31 386.095 1579.33 305.082C1525.76 221.569 1486.6 117.081 1409.22 73.8476C1327.93 28.4341 1228.66 15.5167 1148.63 64.4462C1070.99 111.911 1043.05 230.684 998.557 324.92C961.588 403.219 920.495 478.432 910.402 568.997C900.316 659.497 907.86 754.202 941.743 834.682C974.551 912.606 1039.89 952.041 1094.53 1006.32C1155.16 1066.57 1203.99 1156.96 1280 1170.75Z" fill="#003180"/>
</svg>
